<svg width="45" height="45" viewBox="0 0 45 45" fill="none" xmlns="http://www.w3.org/2000/svg">
<g clip-path="url(#clip0_123_972)">
<circle cx="22.5" cy="22.5" r="22.5" fill="#A6FBAA"/>
<path d="M18.75 12.375C18.75 11.7656 19.2188 11.25 19.875 11.25H20.625C21.2344 11.25 21.75 11.7656 21.75 12.375C21.75 13.0312 21.2344 13.5 20.625 13.5H19.875C19.2188 13.5 18.75 13.0312 18.75 12.375ZM18.75 16.125C18.75 15.5156 19.2188 15 19.875 15H20.625C21.2344 15 21.75 15.5156 21.75 16.125C21.75 16.7812 21.2344 17.25 20.625 17.25H19.875C19.2188 17.25 18.75 16.7812 18.75 16.125ZM9.75 19.875C9.75 19.2656 10.2188 18.75 10.875 18.75H11.625C12.2344 18.75 12.75 19.2656 12.75 19.875C12.75 20.5312 12.2344 21 11.625 21H10.875C10.2188 21 9.75 20.5312 9.75 19.875ZM33.9375 22.5C34.6406 22.5 35.25 23.1094 35.25 23.8125C35.25 27.2344 33 30.1406 29.9062 31.125C29.9531 31.2656 30 31.4062 30 31.5C30 32.3438 29.2969 33 28.5 33H16.5C15.6562 33 15 32.3438 15 31.5C15 31.4062 15 31.2656 15.0469 31.125C11.9531 30.1406 9.75 27.2344 9.75 23.8125C9.75 23.1094 10.3125 22.5 11.0156 22.5H33.9375ZM20.625 18.75C21.2344 18.75 21.75 19.2656 21.75 19.875C21.75 20.5312 21.2344 21 20.625 21H19.875C19.2188 21 18.75 20.5312 18.75 19.875C18.75 19.2656 19.2188 18.75 19.875 18.75H20.625ZM16.125 18.75C16.7344 18.75 17.25 19.2656 17.25 19.875C17.25 20.5312 16.7344 21 16.125 21H15.375C14.7188 21 14.25 20.5312 14.25 19.875C14.25 19.2656 14.7188 18.75 15.375 18.75H16.125ZM14.25 16.125C14.25 15.5156 14.7188 15 15.375 15H16.125C16.7344 15 17.25 15.5156 17.25 16.125C17.25 16.7812 16.7344 17.25 16.125 17.25H15.375C14.7188 17.25 14.25 16.7812 14.25 16.125ZM25.125 18.75C25.7344 18.75 26.25 19.2656 26.25 19.875C26.25 20.5312 25.7344 21 25.125 21H24.375C23.7188 21 23.25 20.5312 23.25 19.875C23.25 19.2656 23.7188 18.75 24.375 18.75H25.125ZM23.25 16.125C23.25 15.5156 23.7188 15 24.375 15H25.125C25.7344 15 26.25 15.5156 26.25 16.125C26.25 16.7812 25.7344 17.25 25.125 17.25H24.375C23.7188 17.25 23.25 16.7812 23.25 16.125ZM29.625 18.75C30.2344 18.75 30.75 19.2656 30.75 19.875C30.75 20.5312 30.2344 21 29.625 21H28.875C28.2188 21 27.75 20.5312 27.75 19.875C27.75 19.2656 28.2188 18.75 28.875 18.75H29.625ZM27.75 16.125C27.75 15.5156 28.2188 15 28.875 15H29.625C30.2344 15 30.75 15.5156 30.75 16.125C30.75 16.7812 30.2344 17.25 29.625 17.25H28.875C28.2188 17.25 27.75 16.7812 27.75 16.125ZM34.125 18.75C34.7344 18.75 35.25 19.2656 35.25 19.875C35.25 20.5312 34.7344 21 34.125 21H33.375C32.7188 21 32.25 20.5312 32.25 19.875C32.25 19.2656 32.7188 18.75 33.375 18.75H34.125ZM25.125 11.25C25.7344 11.25 26.25 11.7656 26.25 12.375C26.25 13.0312 25.7344 13.5 25.125 13.5H24.375C23.7188 13.5 23.25 13.0312 23.25 12.375C23.25 11.7656 23.7188 11.25 24.375 11.25H25.125Z" fill="#0E6025"/>
</g>
<defs>
<clipPath id="clip0_123_972">
<rect width="45" height="45" fill="white"/>
</clipPath>
</defs>
</svg>
