<svg width="45" height="45" viewBox="0 0 45 45" fill="none" xmlns="http://www.w3.org/2000/svg">
<g clip-path="url(#clip0_123_975)">
<circle cx="22.5" cy="22.5" r="22.5" fill="#B3FFED" fill-opacity="0.5"/>
<path d="M30.3594 30H23V31.5C23 32.3438 22.2969 33 21.5 33C20.6562 33 20 32.3438 20 31.5469V30.0469H12.5469C11.1875 30.0469 10.4844 28.4062 11.375 27.375L14.6094 23.6719H13.9062C12.6875 23.6719 12.0781 22.2656 12.8281 21.3281L15.6406 18.0469H15.1719C14.1406 18.0469 13.625 16.9688 14.2344 16.2656L20.5625 9.42188C21.0781 8.85938 21.875 8.85938 22.3906 9.42188L28.7188 16.2656C29.3281 16.9688 28.8125 18.0469 27.7812 18.0469H27.3125L30.125 21.3281C30.9219 22.2656 30.2656 23.6719 29.0469 23.6719H28.3438L31.5781 27.375C32.4688 28.4062 31.7656 30 30.3594 30Z" fill="#378A76"/>
</g>
<defs>
<clipPath id="clip0_123_975">
<rect width="45" height="45" fill="white"/>
</clipPath>
</defs>
</svg>
